<?xml version="1.0" encoding="utf-8" standalone="no"?>
<!DOCTYPE svg PUBLIC "-//W3C//DTD SVG 1.1//EN"
  "http://www.w3.org/Graphics/SVG/1.1/DTD/svg11.dtd">
<!-- Created with matplotlib (https://matplotlib.org/) -->
<svg height="407.52pt" version="1.1" viewBox="0 0 576 407.52" width="576pt" xmlns="http://www.w3.org/2000/svg" xmlns:xlink="http://www.w3.org/1999/xlink">
 <defs>
  <style type="text/css">
*{stroke-linecap:butt;stroke-linejoin:round;}
  </style>
 </defs>
 <g id="figure_1">
  <g id="patch_1">
   <path d="M 0 407.52 
L 576 407.52 
L 576 0 
L 0 0 
z
" style="fill:#ffffff;"/>
  </g>
  <g id="axes_1">
   <g id="patch_2">
    <path d="M 72 191.5344 
L 274.909091 191.5344 
L 274.909091 48.9024 
L 72 48.9024 
z
" style="fill:#ffffff;"/>
   </g>
   <g id="PathCollection_1">
    <defs>
     <path d="M 0 3 
C 0.795609 3 1.55874 2.683901 2.12132 2.12132 
C 2.683901 1.55874 3 0.795609 3 0 
C 3 -0.795609 2.683901 -1.55874 2.12132 -2.12132 
C 1.55874 -2.683901 0.795609 -3 0 -3 
C -0.795609 -3 -1.55874 -2.683901 -2.12132 -2.12132 
C -2.683901 -1.55874 -3 -0.795609 -3 0 
C -3 0.795609 -2.683901 1.55874 -2.12132 2.12132 
C -1.55874 2.683901 -0.795609 3 0 3 
z
" id="md0c901c49c" style="stroke:#ad2e2f;"/>
    </defs>
    <g>
     <use style="fill:#ad2e2f;stroke:#ad2e2f;" x="72.202909" xlink:href="#md0c901c49c" y="111.34778"/>
     <use style="fill:#ad2e2f;stroke:#ad2e2f;" x="122.727273" xlink:href="#md0c901c49c" y="149.681916"/>
     <use style="fill:#ad2e2f;stroke:#ad2e2f;" x="224.181818" xlink:href="#md0c901c49c" y="72.559404"/>
     <use style="fill:#ad2e2f;stroke:#ad2e2f;" x="274.706182" xlink:href="#md0c901c49c" y="110.910674"/>
    </g>
   </g>
   <g id="PathCollection_2">
    <path clip-path="url(#pfe30878012)" d="M 72 108.202078 
L 69 114.202078 
L 75 114.202078 
z
" style="fill:none;stroke:#b7b072;"/>
    <path clip-path="url(#pfe30878012)" d="M 83.30952 116.816021 
L 80.30952 122.816021 
L 86.30952 122.816021 
z
" style="fill:none;stroke:#b7b072;"/>
    <path clip-path="url(#pfe30878012)" d="M 94.644512 125.453958 
L 91.644512 131.453958 
L 97.644512 131.453958 
z
" style="fill:none;stroke:#b7b072;"/>
    <path clip-path="url(#pfe30878012)" d="M 105.954032 134.523792 
L 102.954032 140.523792 
L 108.954032 140.523792 
z
" style="fill:none;stroke:#b7b072;"/>
    <path clip-path="url(#pfe30878012)" d="M 117.136192 144.313454 
L 114.136192 150.313454 
L 120.136192 150.313454 
z
" style="fill:none;stroke:#b7b072;"/>
    <path clip-path="url(#pfe30878012)" d="M 128.394769 154.583002 
L 125.394769 160.583002 
L 131.394769 160.583002 
z
" style="fill:none;stroke:#b7b072;"/>
    <path clip-path="url(#pfe30878012)" d="M 139.704289 163.316916 
L 136.704289 169.316916 
L 142.704289 169.316916 
z
" style="fill:none;stroke:#b7b072;"/>
    <path clip-path="url(#pfe30878012)" d="M 150.962865 170.683157 
L 147.962865 176.683157 
L 153.962865 176.683157 
z
" style="fill:none;stroke:#b7b072;"/>
    <path clip-path="url(#pfe30878012)" d="M 162.195969 176.009885 
L 159.195969 182.009885 
L 165.195969 182.009885 
z
" style="fill:none;stroke:#b7b072;"/>
    <path clip-path="url(#pfe30878012)" d="M 173.454545 176.753707 
L 170.454545 182.753707 
L 176.454545 182.753707 
z
" style="fill:none;stroke:#b7b072;"/>
    <path clip-path="url(#pfe30878012)" d="M 184.764065 172.21879 
L 181.764065 178.21879 
L 187.764065 178.21879 
z
" style="fill:none;stroke:#b7b072;"/>
    <path clip-path="url(#pfe30878012)" d="M 196.022642 138.602818 
L 193.022642 144.602818 
L 199.022642 144.602818 
z
" style="fill:none;stroke:#b7b072;"/>
    <path clip-path="url(#pfe30878012)" d="M 207.281218 63.212822 
L 204.281218 69.212822 
L 210.281218 69.212822 
z
" style="fill:none;stroke:#b7b072;"/>
    <path clip-path="url(#pfe30878012)" d="M 218.590738 71.418863 
L 215.590738 77.418863 
L 221.590738 77.418863 
z
" style="fill:none;stroke:#b7b072;"/>
    <path clip-path="url(#pfe30878012)" d="M 229.849314 80.560679 
L 226.849314 86.560679 
L 232.849314 86.560679 
z
" style="fill:none;stroke:#b7b072;"/>
    <path clip-path="url(#pfe30878012)" d="M 241.158834 89.630513 
L 238.158834 95.630513 
L 244.158834 95.630513 
z
" style="fill:none;stroke:#b7b072;"/>
    <path clip-path="url(#pfe30878012)" d="M 252.41741 98.004514 
L 249.41741 104.004514 
L 255.41741 104.004514 
z
" style="fill:none;stroke:#b7b072;"/>
    <path clip-path="url(#pfe30878012)" d="M 263.72693 103.403224 
L 260.72693 109.403224 
L 266.72693 109.403224 
z
" style="fill:none;stroke:#b7b072;"/>
    <path clip-path="url(#pfe30878012)" d="M 274.909091 103.403224 
L 271.909091 109.403224 
L 277.909091 109.403224 
z
" style="fill:none;stroke:#b7b072;"/>
   </g>
   <g id="PathCollection_3">
    <defs>
     <path d="M -3 3 
L 3 3 
L 3 -3 
L -3 -3 
z
" id="C0_0_9144d63973"/>
    </defs>
    <g clip-path="url(#pfe30878012)">
     <use style="fill:none;stroke:#b7b072;" x="72" xlink:href="#C0_0_9144d63973" y="111.202078"/>
    </g>
    <g clip-path="url(#pfe30878012)">
     <use style="fill:none;stroke:#b7b072;" x="83.2798" xlink:href="#C0_0_9144d63973" y="119.144182"/>
    </g>
    <g clip-path="url(#pfe30878012)">
     <use style="fill:none;stroke:#b7b072;" x="94.5596" xlink:href="#C0_0_9144d63973" y="127.350222"/>
    </g>
    <g clip-path="url(#pfe30878012)">
     <use style="fill:none;stroke:#b7b072;" x="105.8394" xlink:href="#C0_0_9144d63973" y="135.892182"/>
    </g>
    <g clip-path="url(#pfe30878012)">
     <use style="fill:none;stroke:#b7b072;" x="117.068276" xlink:href="#C0_0_9144d63973" y="144.81805"/>
    </g>
    <g clip-path="url(#pfe30878012)">
     <use style="fill:none;stroke:#b7b072;" x="128.322614" xlink:href="#C0_0_9144d63973" y="154.151821"/>
    </g>
    <g clip-path="url(#pfe30878012)">
     <use style="fill:none;stroke:#b7b072;" x="139.627876" xlink:href="#C0_0_9144d63973" y="163.509587"/>
    </g>
    <g clip-path="url(#pfe30878012)">
     <use style="fill:none;stroke:#b7b072;" x="150.907676" xlink:href="#C0_0_9144d63973" y="172.363472"/>
    </g>
    <g clip-path="url(#pfe30878012)">
     <use style="fill:none;stroke:#b7b072;" x="162.187476" xlink:href="#C0_0_9144d63973" y="180.185604"/>
    </g>
    <g clip-path="url(#pfe30878012)">
     <use style="fill:none;stroke:#b7b072;" x="173.441814" xlink:href="#C0_0_9144d63973" y="182.561037"/>
    </g>
    <g clip-path="url(#pfe30878012)">
     <use style="fill:none;stroke:#b7b072;" x="184.721614" xlink:href="#C0_0_9144d63973" y="179.537759"/>
    </g>
    <g clip-path="url(#pfe30878012)">
     <use style="fill:none;stroke:#b7b072;" x="196.026877" xlink:href="#C0_0_9144d63973" y="153.024091"/>
    </g>
    <g clip-path="url(#pfe30878012)">
     <use style="fill:none;stroke:#b7b072;" x="207.255752" xlink:href="#C0_0_9144d63973" y="58.846581"/>
    </g>
    <g clip-path="url(#pfe30878012)">
     <use style="fill:none;stroke:#b7b072;" x="218.561015" xlink:href="#C0_0_9144d63973" y="68.156358"/>
    </g>
    <g clip-path="url(#pfe30878012)">
     <use style="fill:none;stroke:#b7b072;" x="229.815353" xlink:href="#C0_0_9144d63973" y="77.514123"/>
    </g>
    <g clip-path="url(#pfe30878012)">
     <use style="fill:none;stroke:#b7b072;" x="241.069691" xlink:href="#C0_0_9144d63973" y="86.463986"/>
    </g>
    <g clip-path="url(#pfe30878012)">
     <use style="fill:none;stroke:#b7b072;" x="252.374953" xlink:href="#C0_0_9144d63973" y="95.053935"/>
    </g>
    <g clip-path="url(#pfe30878012)">
     <use style="fill:none;stroke:#b7b072;" x="263.629291" xlink:href="#C0_0_9144d63973" y="103.163998"/>
    </g>
    <g clip-path="url(#pfe30878012)">
     <use style="fill:none;stroke:#b7b072;" x="274.909091" xlink:href="#C0_0_9144d63973" y="111.202078"/>
    </g>
   </g>
   <g id="matplotlib.axis_1">
    <g id="xtick_1">
     <g id="line2d_1">
      <defs>
       <path d="M 0 0 
L 0 3.5 
" id="m5a91b2acd4" style="stroke:#000000;stroke-width:0.8;"/>
      </defs>
      <g>
       <use style="stroke:#000000;stroke-width:0.8;" x="72" xlink:href="#m5a91b2acd4" y="191.5344"/>
      </g>
     </g>
    </g>
    <g id="xtick_2">
     <g id="line2d_2">
      <g>
       <use style="stroke:#000000;stroke-width:0.8;" x="139.636364" xlink:href="#m5a91b2acd4" y="191.5344"/>
      </g>
     </g>
    </g>
    <g id="xtick_3">
     <g id="line2d_3">
      <g>
       <use style="stroke:#000000;stroke-width:0.8;" x="207.272727" xlink:href="#m5a91b2acd4" y="191.5344"/>
      </g>
     </g>
    </g>
    <g id="xtick_4">
     <g id="line2d_4">
      <g>
       <use style="stroke:#000000;stroke-width:0.8;" x="274.909091" xlink:href="#m5a91b2acd4" y="191.5344"/>
      </g>
     </g>
    </g>
   </g>
   <g id="matplotlib.axis_2">
    <g id="ytick_1">
     <g id="line2d_5">
      <defs>
       <path d="M 0 0 
L -3.5 0 
" id="ma8795caa4e" style="stroke:#000000;stroke-width:0.8;"/>
      </defs>
      <g>
       <use style="stroke:#000000;stroke-width:0.8;" x="72" xlink:href="#ma8795caa4e" y="164.901254"/>
      </g>
     </g>
     <g id="text_1">
      <!-- −0.4 -->
      <defs>
       <path d="M 10.59375 35.5 
L 73.1875 35.5 
L 73.1875 27.203125 
L 10.59375 27.203125 
z
" id="DejaVuSans-8722"/>
       <path d="M 31.78125 66.40625 
Q 24.171875 66.40625 20.328125 58.90625 
Q 16.5 51.421875 16.5 36.375 
Q 16.5 21.390625 20.328125 13.890625 
Q 24.171875 6.390625 31.78125 6.390625 
Q 39.453125 6.390625 43.28125 13.890625 
Q 47.125 21.390625 47.125 36.375 
Q 47.125 51.421875 43.28125 58.90625 
Q 39.453125 66.40625 31.78125 66.40625 
z
M 31.78125 74.21875 
Q 44.046875 74.21875 50.515625 64.515625 
Q 56.984375 54.828125 56.984375 36.375 
Q 56.984375 17.96875 50.515625 8.265625 
Q 44.046875 -1.421875 31.78125 -1.421875 
Q 19.53125 -1.421875 13.0625 8.265625 
Q 6.59375 17.96875 6.59375 36.375 
Q 6.59375 54.828125 13.0625 64.515625 
Q 19.53125 74.21875 31.78125 74.21875 
z
" id="DejaVuSans-48"/>
       <path d="M 10.6875 12.40625 
L 21 12.40625 
L 21 0 
L 10.6875 0 
z
" id="DejaVuSans-46"/>
       <path d="M 37.796875 64.3125 
L 12.890625 25.390625 
L 37.796875 25.390625 
z
M 35.203125 72.90625 
L 47.609375 72.90625 
L 47.609375 25.390625 
L 58.015625 25.390625 
L 58.015625 17.1875 
L 47.609375 17.1875 
L 47.609375 0 
L 37.796875 0 
L 37.796875 17.1875 
L 4.890625 17.1875 
L 4.890625 26.703125 
z
" id="DejaVuSans-52"/>
      </defs>
      <g transform="translate(40.717187 168.700473)scale(0.1 -0.1)">
       <use xlink:href="#DejaVuSans-8722"/>
       <use x="83.789062" xlink:href="#DejaVuSans-48"/>
       <use x="147.412109" xlink:href="#DejaVuSans-46"/>
       <use x="179.199219" xlink:href="#DejaVuSans-52"/>
      </g>
     </g>
    </g>
    <g id="ytick_2">
     <g id="line2d_6">
      <g>
       <use style="stroke:#000000;stroke-width:0.8;" x="72" xlink:href="#ma8795caa4e" y="138.051666"/>
      </g>
     </g>
     <g id="text_2">
      <!-- −0.2 -->
      <defs>
       <path d="M 19.1875 8.296875 
L 53.609375 8.296875 
L 53.609375 0 
L 7.328125 0 
L 7.328125 8.296875 
Q 12.9375 14.109375 22.625 23.890625 
Q 32.328125 33.6875 34.8125 36.53125 
Q 39.546875 41.84375 41.421875 45.53125 
Q 43.3125 49.21875 43.3125 52.78125 
Q 43.3125 58.59375 39.234375 62.25 
Q 35.15625 65.921875 28.609375 65.921875 
Q 23.96875 65.921875 18.8125 64.3125 
Q 13.671875 62.703125 7.8125 59.421875 
L 7.8125 69.390625 
Q 13.765625 71.78125 18.9375 73 
Q 24.125 74.21875 28.421875 74.21875 
Q 39.75 74.21875 46.484375 68.546875 
Q 53.21875 62.890625 53.21875 53.421875 
Q 53.21875 48.921875 51.53125 44.890625 
Q 49.859375 40.875 45.40625 35.40625 
Q 44.1875 33.984375 37.640625 27.21875 
Q 31.109375 20.453125 19.1875 8.296875 
z
" id="DejaVuSans-50"/>
      </defs>
      <g transform="translate(40.717187 141.850885)scale(0.1 -0.1)">
       <use xlink:href="#DejaVuSans-8722"/>
       <use x="83.789062" xlink:href="#DejaVuSans-48"/>
       <use x="147.412109" xlink:href="#DejaVuSans-46"/>
       <use x="179.199219" xlink:href="#DejaVuSans-50"/>
      </g>
     </g>
    </g>
    <g id="ytick_3">
     <g id="line2d_7">
      <g>
       <use style="stroke:#000000;stroke-width:0.8;" x="72" xlink:href="#ma8795caa4e" y="111.202078"/>
      </g>
     </g>
     <g id="text_3">
      <!-- 0.0 -->
      <g transform="translate(49.096875 115.001297)scale(0.1 -0.1)">
       <use xlink:href="#DejaVuSans-48"/>
       <use x="63.623047" xlink:href="#DejaVuSans-46"/>
       <use x="95.410156" xlink:href="#DejaVuSans-48"/>
      </g>
     </g>
    </g>
    <g id="ytick_4">
     <g id="line2d_8">
      <g>
       <use style="stroke:#000000;stroke-width:0.8;" x="72" xlink:href="#ma8795caa4e" y="84.35249"/>
      </g>
     </g>
     <g id="text_4">
      <!-- 0.2 -->
      <g transform="translate(49.096875 88.151709)scale(0.1 -0.1)">
       <use xlink:href="#DejaVuSans-48"/>
       <use x="63.623047" xlink:href="#DejaVuSans-46"/>
       <use x="95.410156" xlink:href="#DejaVuSans-50"/>
      </g>
     </g>
    </g>
    <g id="ytick_5">
     <g id="line2d_9">
      <g>
       <use style="stroke:#000000;stroke-width:0.8;" x="72" xlink:href="#ma8795caa4e" y="57.502902"/>
      </g>
     </g>
     <g id="text_5">
      <!-- 0.4 -->
      <g transform="translate(49.096875 61.302121)scale(0.1 -0.1)">
       <use xlink:href="#DejaVuSans-48"/>
       <use x="63.623047" xlink:href="#DejaVuSans-46"/>
       <use x="95.410156" xlink:href="#DejaVuSans-52"/>
      </g>
     </g>
    </g>
   </g>
   <g id="line2d_10">
    <path d="M 72.202909 111.34778 
L 90.464727 124.595095 
L 101.218909 132.686113 
L 111.567273 140.75571 
L 138.96 162.328647 
L 144.235636 166.065171 
L 148.699636 168.972018 
L 152.757818 171.360841 
L 156.410182 173.266026 
L 159.859636 174.818926 
L 162.903273 175.959956 
L 165.744 176.797565 
L 168.178909 177.304445 
L 170.410909 177.551893 
L 172.237091 177.550815 
L 173.860364 177.342532 
L 175.280727 176.949685 
L 176.701091 176.312687 
L 178.121455 175.396422 
L 179.541818 174.1819 
L 180.962182 172.660186 
L 182.382545 170.827049 
L 184.005818 168.33044 
L 185.629091 165.3897 
L 187.252364 161.973678 
L 188.875636 158.042185 
L 190.498909 153.543138 
L 192.122182 148.398927 
L 193.745455 142.516737 
L 195.165818 136.646415 
L 196.586182 129.895924 
L 198.006545 121.999314 
L 199.224 113.766752 
L 200.035636 107.008676 
L 200.644364 100.593395 
L 201.050182 94.906542 
L 201.050182 94.906542 
" style="fill:none;stroke:#ad2e2f;stroke-linecap:square;stroke-width:1.5;"/>
   </g>
   <g id="line2d_11">
    <path d="M 201.456 55.385673 
L 206.122909 58.605116 
L 211.804364 62.808103 
L 219.312 68.666742 
L 247.719273 91.11299 
L 258.270545 99.006451 
L 271.662545 108.72425 
L 274.706182 110.910674 
L 274.706182 110.910674 
" style="fill:none;stroke:#ad2e2f;stroke-linecap:square;stroke-width:1.5;"/>
   </g>
   <g id="line2d_12">
    <path d="M 201.151636 191.5344 
L 201.151636 48.9024 
" style="fill:none;stroke:#008000;stroke-dasharray:3,4.95;stroke-dashoffset:0;stroke-width:3;"/>
   </g>
   <g id="patch_3">
    <path d="M 72 191.5344 
L 72 48.9024 
" style="fill:none;stroke:#000000;stroke-linecap:square;stroke-linejoin:miter;stroke-width:0.8;"/>
   </g>
   <g id="patch_4">
    <path d="M 274.909091 191.5344 
L 274.909091 48.9024 
" style="fill:none;stroke:#000000;stroke-linecap:square;stroke-linejoin:miter;stroke-width:0.8;"/>
   </g>
   <g id="patch_5">
    <path d="M 72 191.5344 
L 274.909091 191.5344 
" style="fill:none;stroke:#000000;stroke-linecap:square;stroke-linejoin:miter;stroke-width:0.8;"/>
   </g>
   <g id="patch_6">
    <path d="M 72 48.9024 
L 274.909091 48.9024 
" style="fill:none;stroke:#000000;stroke-linecap:square;stroke-linejoin:miter;stroke-width:0.8;"/>
   </g>
  </g>
  <g id="axes_2">
   <g id="patch_7">
    <path d="M 315.490909 191.5344 
L 518.4 191.5344 
L 518.4 48.9024 
L 315.490909 48.9024 
z
" style="fill:#ffffff;"/>
   </g>
   <g id="PathCollection_4">
    <g>
     <use style="fill:#ad2e2f;stroke:#ad2e2f;" x="315.693818" xlink:href="#md0c901c49c" y="58.947952"/>
     <use style="fill:#ad2e2f;stroke:#ad2e2f;" x="366.218182" xlink:href="#md0c901c49c" y="115.20827"/>
     <use style="fill:#ad2e2f;stroke:#ad2e2f;" x="467.672727" xlink:href="#md0c901c49c" y="162.726033"/>
     <use style="fill:#ad2e2f;stroke:#ad2e2f;" x="518.4" xlink:href="#md0c901c49c" y="58.751548"/>
    </g>
   </g>
   <g id="PathCollection_5">
    <path d="M 315.490909 54.915289 
L 312.490909 60.915289 
L 318.490909 60.915289 
z
" style="fill:none;stroke:#b7b072;"/>
    <path d="M 326.818791 67.748655 
L 323.818791 73.748655 
L 329.818791 73.748655 
z
" style="fill:none;stroke:#b7b072;"/>
    <path d="M 338.095761 79.906582 
L 335.095761 85.906582 
L 341.095761 85.906582 
z
" style="fill:none;stroke:#b7b072;"/>
    <path d="M 349.347275 93.029423 
L 346.347275 99.029423 
L 352.347275 99.029423 
z
" style="fill:none;stroke:#b7b072;"/>
    <path d="M 360.624245 103.77214 
L 357.624245 109.77214 
L 363.624245 109.77214 
z
" style="fill:none;stroke:#b7b072;"/>
    <path d="M 371.875759 118.535336 
L 368.875759 124.535336 
L 374.875759 124.535336 
z
" style="fill:none;stroke:#b7b072;"/>
    <path d="M 383.152729 129.792675 
L 380.152729 135.792675 
L 386.152729 135.792675 
z
" style="fill:none;stroke:#b7b072;"/>
    <path d="M 394.429699 141.918438 
L 391.429699 147.918438 
L 397.429699 147.918438 
z
" style="fill:none;stroke:#b7b072;"/>
    <path d="M 405.706668 152.339517 
L 402.706668 158.339517 
L 408.706668 158.339517 
z
" style="fill:none;stroke:#b7b072;"/>
    <path d="M 416.983638 156.617306 
L 413.983638 162.617306 
L 419.983638 162.617306 
z
" style="fill:none;stroke:#b7b072;"/>
    <path d="M 428.260608 159.994508 
L 425.260608 165.994508 
L 431.260608 165.994508 
z
" style="fill:none;stroke:#b7b072;"/>
    <path d="M 439.512122 162.760597 
L 436.512122 168.760597 
L 442.512122 168.760597 
z
" style="fill:none;stroke:#b7b072;"/>
    <path d="M 450.763636 158.740119 
L 447.763636 164.740119 
L 453.763636 164.740119 
z
" style="fill:none;stroke:#b7b072;"/>
   </g>
   <g id="PathCollection_6">
    <defs>
     <path d="M -3 3 
L 3 3 
L 3 -3 
L -3 -3 
z
" id="C1_0_408e00785c"/>
    </defs>
    <use style="fill:none;stroke:#b7b072;" x="315.490909" xlink:href="#C1_0_408e00785c" y="58.751548"/>
    <use style="fill:none;stroke:#b7b072;" x="326.818791" xlink:href="#C1_0_408e00785c" y="69.333447"/>
    <use style="fill:none;stroke:#b7b072;" x="338.095761" xlink:href="#C1_0_408e00785c" y="80.62295"/>
    <use style="fill:none;stroke:#b7b072;" x="349.347275" xlink:href="#C1_0_408e00785c" y="92.748712"/>
    <use style="fill:none;stroke:#b7b072;" x="360.624245" xlink:href="#C1_0_408e00785c" y="106.000209"/>
    <use style="fill:none;stroke:#b7b072;" x="371.875759" xlink:href="#C1_0_408e00785c" y="120.21662"/>
    <use style="fill:none;stroke:#b7b072;" x="383.152729" xlink:href="#C1_0_408e00785c" y="135.011979"/>
    <use style="fill:none;stroke:#b7b072;" x="394.429699" xlink:href="#C1_0_408e00785c" y="149.968158"/>
    <use style="fill:none;stroke:#b7b072;" x="405.706668" xlink:href="#C1_0_408e00785c" y="163.637784"/>
    <use style="fill:none;stroke:#b7b072;" x="416.983638" xlink:href="#C1_0_408e00785c" y="174.541321"/>
    <use style="fill:none;stroke:#b7b072;" x="428.260608" xlink:href="#C1_0_408e00785c" y="180.781104"/>
    <use style="fill:none;stroke:#b7b072;" x="439.512122" xlink:href="#C1_0_408e00785c" y="181.199233"/>
    <use style="fill:none;stroke:#b7b072;" x="450.763636" xlink:href="#C1_0_408e00785c" y="175.892202"/>
    <use style="fill:none;stroke:#b7b072;" x="462.066062" xlink:href="#C1_0_408e00785c" y="166.082235"/>
    <use style="fill:none;stroke:#b7b072;" x="473.317576" xlink:href="#C1_0_408e00785c" y="153.602671"/>
    <use style="fill:none;stroke:#b7b072;" x="484.56909" xlink:href="#C1_0_408e00785c" y="139.772226"/>
    <use style="fill:none;stroke:#b7b072;" x="495.871516" xlink:href="#C1_0_408e00785c" y="124.880374"/>
    <use style="fill:none;stroke:#b7b072;" x="507.12303" xlink:href="#C1_0_408e00785c" y="107.093779"/>
    <use style="fill:none;stroke:#b7b072;" x="518.4" xlink:href="#C1_0_408e00785c" y="58.719385"/>
   </g>
   <g id="matplotlib.axis_3">
    <g id="xtick_5">
     <g id="line2d_13">
      <g>
       <use style="stroke:#000000;stroke-width:0.8;" x="315.490909" xlink:href="#m5a91b2acd4" y="191.5344"/>
      </g>
     </g>
    </g>
    <g id="xtick_6">
     <g id="line2d_14">
      <g>
       <use style="stroke:#000000;stroke-width:0.8;" x="383.127273" xlink:href="#m5a91b2acd4" y="191.5344"/>
      </g>
     </g>
    </g>
    <g id="xtick_7">
     <g id="line2d_15">
      <g>
       <use style="stroke:#000000;stroke-width:0.8;" x="450.763636" xlink:href="#m5a91b2acd4" y="191.5344"/>
      </g>
     </g>
    </g>
    <g id="xtick_8">
     <g id="line2d_16">
      <g>
       <use style="stroke:#000000;stroke-width:0.8;" x="518.4" xlink:href="#m5a91b2acd4" y="191.5344"/>
      </g>
     </g>
    </g>
   </g>
   <g id="matplotlib.axis_4">
    <g id="ytick_6">
     <g id="line2d_17">
      <g>
       <use style="stroke:#000000;stroke-width:0.8;" x="315.490909" xlink:href="#ma8795caa4e" y="167.280338"/>
      </g>
     </g>
     <g id="text_6">
      <!-- −0.6 -->
      <defs>
       <path d="M 33.015625 40.375 
Q 26.375 40.375 22.484375 35.828125 
Q 18.609375 31.296875 18.609375 23.390625 
Q 18.609375 15.53125 22.484375 10.953125 
Q 26.375 6.390625 33.015625 6.390625 
Q 39.65625 6.390625 43.53125 10.953125 
Q 47.40625 15.53125 47.40625 23.390625 
Q 47.40625 31.296875 43.53125 35.828125 
Q 39.65625 40.375 33.015625 40.375 
z
M 52.59375 71.296875 
L 52.59375 62.3125 
Q 48.875 64.0625 45.09375 64.984375 
Q 41.3125 65.921875 37.59375 65.921875 
Q 27.828125 65.921875 22.671875 59.328125 
Q 17.53125 52.734375 16.796875 39.40625 
Q 19.671875 43.65625 24.015625 45.921875 
Q 28.375 48.1875 33.59375 48.1875 
Q 44.578125 48.1875 50.953125 41.515625 
Q 57.328125 34.859375 57.328125 23.390625 
Q 57.328125 12.15625 50.6875 5.359375 
Q 44.046875 -1.421875 33.015625 -1.421875 
Q 20.359375 -1.421875 13.671875 8.265625 
Q 6.984375 17.96875 6.984375 36.375 
Q 6.984375 53.65625 15.1875 63.9375 
Q 23.390625 74.21875 37.203125 74.21875 
Q 40.921875 74.21875 44.703125 73.484375 
Q 48.484375 72.75 52.59375 71.296875 
z
" id="DejaVuSans-54"/>
      </defs>
      <g transform="translate(284.208097 171.079556)scale(0.1 -0.1)">
       <use xlink:href="#DejaVuSans-8722"/>
       <use x="83.789062" xlink:href="#DejaVuSans-48"/>
       <use x="147.412109" xlink:href="#DejaVuSans-46"/>
       <use x="179.199219" xlink:href="#DejaVuSans-54"/>
      </g>
     </g>
    </g>
    <g id="ytick_7">
     <g id="line2d_18">
      <g>
       <use style="stroke:#000000;stroke-width:0.8;" x="315.490909" xlink:href="#ma8795caa4e" y="131.104075"/>
      </g>
     </g>
     <g id="text_7">
      <!-- −0.4 -->
      <g transform="translate(284.208097 134.903293)scale(0.1 -0.1)">
       <use xlink:href="#DejaVuSans-8722"/>
       <use x="83.789062" xlink:href="#DejaVuSans-48"/>
       <use x="147.412109" xlink:href="#DejaVuSans-46"/>
       <use x="179.199219" xlink:href="#DejaVuSans-52"/>
      </g>
     </g>
    </g>
    <g id="ytick_8">
     <g id="line2d_19">
      <g>
       <use style="stroke:#000000;stroke-width:0.8;" x="315.490909" xlink:href="#ma8795caa4e" y="94.927812"/>
      </g>
     </g>
     <g id="text_8">
      <!-- −0.2 -->
      <g transform="translate(284.208097 98.72703)scale(0.1 -0.1)">
       <use xlink:href="#DejaVuSans-8722"/>
       <use x="83.789062" xlink:href="#DejaVuSans-48"/>
       <use x="147.412109" xlink:href="#DejaVuSans-46"/>
       <use x="179.199219" xlink:href="#DejaVuSans-50"/>
      </g>
     </g>
    </g>
    <g id="ytick_9">
     <g id="line2d_20">
      <g>
       <use style="stroke:#000000;stroke-width:0.8;" x="315.490909" xlink:href="#ma8795caa4e" y="58.751548"/>
      </g>
     </g>
     <g id="text_9">
      <!-- 0.0 -->
      <g transform="translate(292.587784 62.550767)scale(0.1 -0.1)">
       <use xlink:href="#DejaVuSans-48"/>
       <use x="63.623047" xlink:href="#DejaVuSans-46"/>
       <use x="95.410156" xlink:href="#DejaVuSans-48"/>
      </g>
     </g>
    </g>
   </g>
   <g id="line2d_21">
    <path d="M 315.693818 58.947952 
L 327.665455 70.688466 
L 334.767273 77.979257 
L 341.260364 84.967133 
L 347.550545 92.072122 
L 353.637818 99.28175 
L 359.928 107.078897 
L 366.624 115.74313 
L 374.334545 126.100301 
L 396.045818 155.524162 
L 400.915636 161.599528 
L 404.973818 166.33164 
L 408.626182 170.268285 
L 412.075636 173.655421 
L 415.119273 176.340969 
L 417.96 178.564095 
L 420.597818 180.363405 
L 423.235636 181.890622 
L 425.670545 183.046073 
L 428.105455 183.946999 
L 430.337455 184.542016 
L 432.569455 184.910911 
L 434.801455 185.04997 
L 437.033455 184.957011 
L 439.265455 184.631475 
L 441.497455 184.074494 
L 443.729455 183.288947 
L 445.961455 182.279465 
L 448.396364 180.930355 
L 450.831273 179.332924 
L 453.469091 177.337034 
L 456.309818 174.900235 
L 459.353455 171.988223 
L 462.6 168.577882 
L 466.252364 164.420961 
L 470.513455 159.225103 
L 475.586182 152.678947 
L 482.079273 143.922665 
L 489.789818 133.147857 
L 495.674182 124.577823 
L 499.935273 118.013172 
L 503.384727 112.301243 
L 506.225455 107.15671 
L 508.457455 102.676573 
L 510.486545 98.087265 
L 512.109818 93.873183 
L 513.530182 89.568299 
L 514.747636 85.147269 
L 515.762182 80.609483 
L 516.573818 76.026153 
L 516.776727 74.679257 
L 518.4 58.751548 
L 518.4 58.751548 
" style="fill:none;stroke:#ad2e2f;stroke-linecap:square;stroke-width:1.5;"/>
   </g>
   <g id="patch_8">
    <path d="M 315.490909 191.5344 
L 315.490909 48.9024 
" style="fill:none;stroke:#000000;stroke-linecap:square;stroke-linejoin:miter;stroke-width:0.8;"/>
   </g>
   <g id="patch_9">
    <path d="M 518.4 191.5344 
L 518.4 48.9024 
" style="fill:none;stroke:#000000;stroke-linecap:square;stroke-linejoin:miter;stroke-width:0.8;"/>
   </g>
   <g id="patch_10">
    <path d="M 315.490909 191.5344 
L 518.4 191.5344 
" style="fill:none;stroke:#000000;stroke-linecap:square;stroke-linejoin:miter;stroke-width:0.8;"/>
   </g>
   <g id="patch_11">
    <path d="M 315.490909 48.9024 
L 518.4 48.9024 
" style="fill:none;stroke:#000000;stroke-linecap:square;stroke-linejoin:miter;stroke-width:0.8;"/>
   </g>
  </g>
  <g id="axes_3">
   <g id="patch_12">
    <path d="M 72 362.6928 
L 274.909091 362.6928 
L 274.909091 220.0608 
L 72 220.0608 
z
" style="fill:#ffffff;"/>
   </g>
   <g id="PathCollection_7">
    <g>
     <use style="fill:#ad2e2f;stroke:#ad2e2f;" x="72.202909" xlink:href="#md0c901c49c" y="239.507778"/>
     <use style="fill:#ad2e2f;stroke:#ad2e2f;" x="122.727273" xlink:href="#md0c901c49c" y="229.044828"/>
     <use style="fill:#ad2e2f;stroke:#ad2e2f;" x="224.181818" xlink:href="#md0c901c49c" y="231.31035"/>
     <use style="fill:#ad2e2f;stroke:#ad2e2f;" x="274.706182" xlink:href="#md0c901c49c" y="239.513793"/>
    </g>
   </g>
   <g id="matplotlib.axis_5">
    <g id="xtick_9">
     <g id="line2d_22">
      <g>
       <use style="stroke:#000000;stroke-width:0.8;" x="72" xlink:href="#m5a91b2acd4" y="362.6928"/>
      </g>
     </g>
     <g id="text_10">
      <!-- 0 -->
      <g transform="translate(68.81875 377.291237)scale(0.1 -0.1)">
       <use xlink:href="#DejaVuSans-48"/>
      </g>
     </g>
    </g>
    <g id="xtick_10">
     <g id="line2d_23">
      <g>
       <use style="stroke:#000000;stroke-width:0.8;" x="139.636364" xlink:href="#m5a91b2acd4" y="362.6928"/>
      </g>
     </g>
     <g id="text_11">
      <!-- 60 -->
      <g transform="translate(133.273864 377.291237)scale(0.1 -0.1)">
       <use xlink:href="#DejaVuSans-54"/>
       <use x="63.623047" xlink:href="#DejaVuSans-48"/>
      </g>
     </g>
    </g>
    <g id="xtick_11">
     <g id="line2d_24">
      <g>
       <use style="stroke:#000000;stroke-width:0.8;" x="207.272727" xlink:href="#m5a91b2acd4" y="362.6928"/>
      </g>
     </g>
     <g id="text_12">
      <!-- 120 -->
      <defs>
       <path d="M 12.40625 8.296875 
L 28.515625 8.296875 
L 28.515625 63.921875 
L 10.984375 60.40625 
L 10.984375 69.390625 
L 28.421875 72.90625 
L 38.28125 72.90625 
L 38.28125 8.296875 
L 54.390625 8.296875 
L 54.390625 0 
L 12.40625 0 
z
" id="DejaVuSans-49"/>
      </defs>
      <g transform="translate(197.728977 377.291237)scale(0.1 -0.1)">
       <use xlink:href="#DejaVuSans-49"/>
       <use x="63.623047" xlink:href="#DejaVuSans-50"/>
       <use x="127.246094" xlink:href="#DejaVuSans-48"/>
      </g>
     </g>
    </g>
    <g id="xtick_12">
     <g id="line2d_25">
      <g>
       <use style="stroke:#000000;stroke-width:0.8;" x="274.909091" xlink:href="#m5a91b2acd4" y="362.6928"/>
      </g>
     </g>
     <g id="text_13">
      <!-- 180 -->
      <defs>
       <path d="M 31.78125 34.625 
Q 24.75 34.625 20.71875 30.859375 
Q 16.703125 27.09375 16.703125 20.515625 
Q 16.703125 13.921875 20.71875 10.15625 
Q 24.75 6.390625 31.78125 6.390625 
Q 38.8125 6.390625 42.859375 10.171875 
Q 46.921875 13.96875 46.921875 20.515625 
Q 46.921875 27.09375 42.890625 30.859375 
Q 38.875 34.625 31.78125 34.625 
z
M 21.921875 38.8125 
Q 15.578125 40.375 12.03125 44.71875 
Q 8.5 49.078125 8.5 55.328125 
Q 8.5 64.0625 14.71875 69.140625 
Q 20.953125 74.21875 31.78125 74.21875 
Q 42.671875 74.21875 48.875 69.140625 
Q 55.078125 64.0625 55.078125 55.328125 
Q 55.078125 49.078125 51.53125 44.71875 
Q 48 40.375 41.703125 38.8125 
Q 48.828125 37.15625 52.796875 32.3125 
Q 56.78125 27.484375 56.78125 20.515625 
Q 56.78125 9.90625 50.3125 4.234375 
Q 43.84375 -1.421875 31.78125 -1.421875 
Q 19.734375 -1.421875 13.25 4.234375 
Q 6.78125 9.90625 6.78125 20.515625 
Q 6.78125 27.484375 10.78125 32.3125 
Q 14.796875 37.15625 21.921875 38.8125 
z
M 18.3125 54.390625 
Q 18.3125 48.734375 21.84375 45.5625 
Q 25.390625 42.390625 31.78125 42.390625 
Q 38.140625 42.390625 41.71875 45.5625 
Q 45.3125 48.734375 45.3125 54.390625 
Q 45.3125 60.0625 41.71875 63.234375 
Q 38.140625 66.40625 31.78125 66.40625 
Q 25.390625 66.40625 21.84375 63.234375 
Q 18.3125 60.0625 18.3125 54.390625 
z
" id="DejaVuSans-56"/>
      </defs>
      <g transform="translate(265.365341 377.291237)scale(0.1 -0.1)">
       <use xlink:href="#DejaVuSans-49"/>
       <use x="63.623047" xlink:href="#DejaVuSans-56"/>
       <use x="127.246094" xlink:href="#DejaVuSans-48"/>
      </g>
     </g>
    </g>
   </g>
   <g id="matplotlib.axis_6">
    <g id="ytick_10">
     <g id="line2d_26">
      <g>
       <use style="stroke:#000000;stroke-width:0.8;" x="72" xlink:href="#ma8795caa4e" y="336.928363"/>
      </g>
     </g>
     <g id="text_14">
      <!-- 1 -->
      <g transform="translate(58.6375 340.727581)scale(0.1 -0.1)">
       <use xlink:href="#DejaVuSans-49"/>
      </g>
     </g>
    </g>
    <g id="ytick_11">
     <g id="line2d_27">
      <g>
       <use style="stroke:#000000;stroke-width:0.8;" x="72" xlink:href="#ma8795caa4e" y="306.440654"/>
      </g>
     </g>
     <g id="text_15">
      <!-- 2 -->
      <g transform="translate(58.6375 310.239873)scale(0.1 -0.1)">
       <use xlink:href="#DejaVuSans-50"/>
      </g>
     </g>
    </g>
    <g id="ytick_12">
     <g id="line2d_28">
      <g>
       <use style="stroke:#000000;stroke-width:0.8;" x="72" xlink:href="#ma8795caa4e" y="275.952946"/>
      </g>
     </g>
     <g id="text_16">
      <!-- 3 -->
      <defs>
       <path d="M 40.578125 39.3125 
Q 47.65625 37.796875 51.625 33 
Q 55.609375 28.21875 55.609375 21.1875 
Q 55.609375 10.40625 48.1875 4.484375 
Q 40.765625 -1.421875 27.09375 -1.421875 
Q 22.515625 -1.421875 17.65625 -0.515625 
Q 12.796875 0.390625 7.625 2.203125 
L 7.625 11.71875 
Q 11.71875 9.328125 16.59375 8.109375 
Q 21.484375 6.890625 26.8125 6.890625 
Q 36.078125 6.890625 40.9375 10.546875 
Q 45.796875 14.203125 45.796875 21.1875 
Q 45.796875 27.640625 41.28125 31.265625 
Q 36.765625 34.90625 28.71875 34.90625 
L 20.21875 34.90625 
L 20.21875 43.015625 
L 29.109375 43.015625 
Q 36.375 43.015625 40.234375 45.921875 
Q 44.09375 48.828125 44.09375 54.296875 
Q 44.09375 59.90625 40.109375 62.90625 
Q 36.140625 65.921875 28.71875 65.921875 
Q 24.65625 65.921875 20.015625 65.03125 
Q 15.375 64.15625 9.8125 62.3125 
L 9.8125 71.09375 
Q 15.4375 72.65625 20.34375 73.4375 
Q 25.25 74.21875 29.59375 74.21875 
Q 40.828125 74.21875 47.359375 69.109375 
Q 53.90625 64.015625 53.90625 55.328125 
Q 53.90625 49.265625 50.4375 45.09375 
Q 46.96875 40.921875 40.578125 39.3125 
z
" id="DejaVuSans-51"/>
      </defs>
      <g transform="translate(58.6375 279.752164)scale(0.1 -0.1)">
       <use xlink:href="#DejaVuSans-51"/>
      </g>
     </g>
    </g>
    <g id="ytick_13">
     <g id="line2d_29">
      <g>
       <use style="stroke:#000000;stroke-width:0.8;" x="72" xlink:href="#ma8795caa4e" y="245.465237"/>
      </g>
     </g>
     <g id="text_17">
      <!-- 4 -->
      <g transform="translate(58.6375 249.264456)scale(0.1 -0.1)">
       <use xlink:href="#DejaVuSans-52"/>
      </g>
     </g>
    </g>
    <g id="text_18">
     <!-- 1e−6 -->
     <defs>
      <path d="M 56.203125 29.59375 
L 56.203125 25.203125 
L 14.890625 25.203125 
Q 15.484375 15.921875 20.484375 11.0625 
Q 25.484375 6.203125 34.421875 6.203125 
Q 39.59375 6.203125 44.453125 7.46875 
Q 49.3125 8.734375 54.109375 11.28125 
L 54.109375 2.78125 
Q 49.265625 0.734375 44.1875 -0.34375 
Q 39.109375 -1.421875 33.890625 -1.421875 
Q 20.796875 -1.421875 13.15625 6.1875 
Q 5.515625 13.8125 5.515625 26.8125 
Q 5.515625 40.234375 12.765625 48.109375 
Q 20.015625 56 32.328125 56 
Q 43.359375 56 49.78125 48.890625 
Q 56.203125 41.796875 56.203125 29.59375 
z
M 47.21875 32.234375 
Q 47.125 39.59375 43.09375 43.984375 
Q 39.0625 48.390625 32.421875 48.390625 
Q 24.90625 48.390625 20.390625 44.140625 
Q 15.875 39.890625 15.1875 32.171875 
z
" id="DejaVuSans-101"/>
     </defs>
     <g transform="translate(72 217.0608)scale(0.1 -0.1)">
      <use xlink:href="#DejaVuSans-49"/>
      <use x="63.623047" xlink:href="#DejaVuSans-101"/>
      <use x="125.146484" xlink:href="#DejaVuSans-8722"/>
      <use x="208.935547" xlink:href="#DejaVuSans-54"/>
     </g>
    </g>
   </g>
   <g id="line2d_30">
    <path d="M 72.202909 239.507778 
L 75.652364 239.411452 
L 79.710545 239.080574 
L 83.768727 238.527772 
L 88.232727 237.686588 
L 93.102545 236.532234 
L 98.986909 234.894022 
L 113.799273 230.640452 
L 117.857455 229.74173 
L 121.306909 229.195461 
L 124.350545 228.9348 
L 127.191273 228.924034 
L 129.626182 229.126129 
L 132.061091 229.552306 
L 134.293091 230.163393 
L 136.525091 231.00709 
L 138.757091 232.103595 
L 140.786182 233.336295 
L 142.815273 234.807441 
L 145.047273 236.71655 
L 147.279273 238.944837 
L 149.511273 241.506845 
L 151.743273 244.416903 
L 153.975273 247.690778 
L 156.207273 251.347924 
L 158.439273 255.415292 
L 160.671273 259.932433 
L 162.903273 264.959253 
L 164.932364 270.047291 
L 166.961455 275.72888 
L 168.584727 280.877474 
L 170.410909 287.329678 
L 172.034182 293.826941 
L 174.063273 302.871403 
L 176.701091 314.626425 
L 178.324364 320.495424 
L 179.541818 323.984744 
L 180.759273 326.785614 
L 181.976727 329.011212 
L 183.194182 330.810014 
L 184.411636 332.242658 
L 185.832 333.550613 
L 187.252364 334.550818 
L 189.687273 335.796534 
L 190.498909 336.082426 
L 190.904727 336.291537 
L 191.513455 336.376698 
L 192.122182 336.763484 
L 192.730909 336.797294 
L 193.339636 337.255537 
L 193.745455 337.178422 
L 194.151273 337.610522 
L 194.354182 337.814845 
L 194.962909 337.830019 
L 195.368727 338.471841 
L 195.571636 338.540507 
L 195.774545 338.474929 
L 195.977455 338.582758 
L 196.586182 339.488091 
L 196.789091 339.483135 
L 196.992 339.705819 
L 197.397818 340.64378 
L 197.803636 340.950078 
L 199.224 344.64955 
L 199.629818 346.215307 
L 200.238545 349.247547 
L 200.644364 352.054473 
L 201.050182 356.209527 
L 201.050182 356.209527 
" style="fill:none;stroke:#ad2e2f;stroke-linecap:square;stroke-width:1.5;"/>
   </g>
   <g id="line2d_31">
    <path d="M 201.456 241.302723 
L 204.093818 238.875156 
L 206.528727 236.974454 
L 208.354909 235.754359 
L 210.384 234.593578 
L 212.818909 233.462739 
L 215.253818 232.598008 
L 217.485818 232.014731 
L 219.920727 231.592412 
L 222.558545 231.354016 
L 225.399273 231.321765 
L 228.645818 231.524202 
L 232.501091 232.027374 
L 236.965091 232.869362 
L 242.240727 234.079362 
L 256.850182 237.518568 
L 261.922909 238.435294 
L 266.589818 239.052602 
L 270.850909 239.396873 
L 274.706182 239.513793 
L 274.706182 239.513793 
" style="fill:none;stroke:#ad2e2f;stroke-linecap:square;stroke-width:1.5;"/>
   </g>
   <g id="line2d_32">
    <path d="M 201.151636 362.6928 
L 201.151636 220.0608 
" style="fill:none;stroke:#008000;stroke-dasharray:3,4.95;stroke-dashoffset:0;stroke-width:3;"/>
   </g>
   <g id="patch_13">
    <path d="M 72 362.6928 
L 72 220.0608 
" style="fill:none;stroke:#000000;stroke-linecap:square;stroke-linejoin:miter;stroke-width:0.8;"/>
   </g>
   <g id="patch_14">
    <path d="M 274.909091 362.6928 
L 274.909091 220.0608 
" style="fill:none;stroke:#000000;stroke-linecap:square;stroke-linejoin:miter;stroke-width:0.8;"/>
   </g>
   <g id="patch_15">
    <path d="M 72 362.6928 
L 274.909091 362.6928 
" style="fill:none;stroke:#000000;stroke-linecap:square;stroke-linejoin:miter;stroke-width:0.8;"/>
   </g>
   <g id="patch_16">
    <path d="M 72 220.0608 
L 274.909091 220.0608 
" style="fill:none;stroke:#000000;stroke-linecap:square;stroke-linejoin:miter;stroke-width:0.8;"/>
   </g>
  </g>
  <g id="axes_4">
   <g id="patch_17">
    <path d="M 315.490909 362.6928 
L 518.4 362.6928 
L 518.4 220.0608 
L 315.490909 220.0608 
z
" style="fill:#ffffff;"/>
   </g>
   <g id="PathCollection_8">
    <g>
     <use style="fill:#ad2e2f;stroke:#ad2e2f;" x="315.693818" xlink:href="#md0c901c49c" y="275.338273"/>
     <use style="fill:#ad2e2f;stroke:#ad2e2f;" x="366.218182" xlink:href="#md0c901c49c" y="232.873636"/>
     <use style="fill:#ad2e2f;stroke:#ad2e2f;" x="467.672727" xlink:href="#md0c901c49c" y="312.857854"/>
     <use style="fill:#ad2e2f;stroke:#ad2e2f;" x="518.4" xlink:href="#md0c901c49c" y="353.667113"/>
    </g>
   </g>
   <g id="matplotlib.axis_7">
    <g id="xtick_13">
     <g id="line2d_33">
      <g>
       <use style="stroke:#000000;stroke-width:0.8;" x="315.490909" xlink:href="#m5a91b2acd4" y="362.6928"/>
      </g>
     </g>
     <g id="text_19">
      <!-- 0 -->
      <g transform="translate(312.309659 377.291237)scale(0.1 -0.1)">
       <use xlink:href="#DejaVuSans-48"/>
      </g>
     </g>
    </g>
    <g id="xtick_14">
     <g id="line2d_34">
      <g>
       <use style="stroke:#000000;stroke-width:0.8;" x="383.127273" xlink:href="#m5a91b2acd4" y="362.6928"/>
      </g>
     </g>
     <g id="text_20">
      <!-- 60 -->
      <g transform="translate(376.764773 377.291237)scale(0.1 -0.1)">
       <use xlink:href="#DejaVuSans-54"/>
       <use x="63.623047" xlink:href="#DejaVuSans-48"/>
      </g>
     </g>
    </g>
    <g id="xtick_15">
     <g id="line2d_35">
      <g>
       <use style="stroke:#000000;stroke-width:0.8;" x="450.763636" xlink:href="#m5a91b2acd4" y="362.6928"/>
      </g>
     </g>
     <g id="text_21">
      <!-- 120 -->
      <g transform="translate(441.219886 377.291237)scale(0.1 -0.1)">
       <use xlink:href="#DejaVuSans-49"/>
       <use x="63.623047" xlink:href="#DejaVuSans-50"/>
       <use x="127.246094" xlink:href="#DejaVuSans-48"/>
      </g>
     </g>
    </g>
    <g id="xtick_16">
     <g id="line2d_36">
      <g>
       <use style="stroke:#000000;stroke-width:0.8;" x="518.4" xlink:href="#m5a91b2acd4" y="362.6928"/>
      </g>
     </g>
     <g id="text_22">
      <!-- 180 -->
      <g transform="translate(508.85625 377.291237)scale(0.1 -0.1)">
       <use xlink:href="#DejaVuSans-49"/>
       <use x="63.623047" xlink:href="#DejaVuSans-56"/>
       <use x="127.246094" xlink:href="#DejaVuSans-48"/>
      </g>
     </g>
    </g>
   </g>
   <g id="matplotlib.axis_8">
    <g id="ytick_14">
     <g id="line2d_37">
      <g>
       <use style="stroke:#000000;stroke-width:0.8;" x="315.490909" xlink:href="#ma8795caa4e" y="353.667113"/>
      </g>
     </g>
     <g id="text_23">
      <!-- 0.00 -->
      <g transform="translate(286.225284 357.466332)scale(0.1 -0.1)">
       <use xlink:href="#DejaVuSans-48"/>
       <use x="63.623047" xlink:href="#DejaVuSans-46"/>
       <use x="95.410156" xlink:href="#DejaVuSans-48"/>
       <use x="159.033203" xlink:href="#DejaVuSans-48"/>
      </g>
     </g>
    </g>
    <g id="ytick_15">
     <g id="line2d_38">
      <g>
       <use style="stroke:#000000;stroke-width:0.8;" x="315.490909" xlink:href="#ma8795caa4e" y="328.790879"/>
      </g>
     </g>
     <g id="text_24">
      <!-- 0.25 -->
      <defs>
       <path d="M 10.796875 72.90625 
L 49.515625 72.90625 
L 49.515625 64.59375 
L 19.828125 64.59375 
L 19.828125 46.734375 
Q 21.96875 47.46875 24.109375 47.828125 
Q 26.265625 48.1875 28.421875 48.1875 
Q 40.625 48.1875 47.75 41.5 
Q 54.890625 34.8125 54.890625 23.390625 
Q 54.890625 11.625 47.5625 5.09375 
Q 40.234375 -1.421875 26.90625 -1.421875 
Q 22.3125 -1.421875 17.546875 -0.640625 
Q 12.796875 0.140625 7.71875 1.703125 
L 7.71875 11.625 
Q 12.109375 9.234375 16.796875 8.0625 
Q 21.484375 6.890625 26.703125 6.890625 
Q 35.15625 6.890625 40.078125 11.328125 
Q 45.015625 15.765625 45.015625 23.390625 
Q 45.015625 31 40.078125 35.4375 
Q 35.15625 39.890625 26.703125 39.890625 
Q 22.75 39.890625 18.8125 39.015625 
Q 14.890625 38.140625 10.796875 36.28125 
z
" id="DejaVuSans-53"/>
      </defs>
      <g transform="translate(286.225284 332.590098)scale(0.1 -0.1)">
       <use xlink:href="#DejaVuSans-48"/>
       <use x="63.623047" xlink:href="#DejaVuSans-46"/>
       <use x="95.410156" xlink:href="#DejaVuSans-50"/>
       <use x="159.033203" xlink:href="#DejaVuSans-53"/>
      </g>
     </g>
    </g>
    <g id="ytick_16">
     <g id="line2d_39">
      <g>
       <use style="stroke:#000000;stroke-width:0.8;" x="315.490909" xlink:href="#ma8795caa4e" y="303.914646"/>
      </g>
     </g>
     <g id="text_25">
      <!-- 0.50 -->
      <g transform="translate(286.225284 307.713865)scale(0.1 -0.1)">
       <use xlink:href="#DejaVuSans-48"/>
       <use x="63.623047" xlink:href="#DejaVuSans-46"/>
       <use x="95.410156" xlink:href="#DejaVuSans-53"/>
       <use x="159.033203" xlink:href="#DejaVuSans-48"/>
      </g>
     </g>
    </g>
    <g id="ytick_17">
     <g id="line2d_40">
      <g>
       <use style="stroke:#000000;stroke-width:0.8;" x="315.490909" xlink:href="#ma8795caa4e" y="279.038412"/>
      </g>
     </g>
     <g id="text_26">
      <!-- 0.75 -->
      <defs>
       <path d="M 8.203125 72.90625 
L 55.078125 72.90625 
L 55.078125 68.703125 
L 28.609375 0 
L 18.3125 0 
L 43.21875 64.59375 
L 8.203125 64.59375 
z
" id="DejaVuSans-55"/>
      </defs>
      <g transform="translate(286.225284 282.837631)scale(0.1 -0.1)">
       <use xlink:href="#DejaVuSans-48"/>
       <use x="63.623047" xlink:href="#DejaVuSans-46"/>
       <use x="95.410156" xlink:href="#DejaVuSans-55"/>
       <use x="159.033203" xlink:href="#DejaVuSans-53"/>
      </g>
     </g>
    </g>
    <g id="ytick_18">
     <g id="line2d_41">
      <g>
       <use style="stroke:#000000;stroke-width:0.8;" x="315.490909" xlink:href="#ma8795caa4e" y="254.162178"/>
      </g>
     </g>
     <g id="text_27">
      <!-- 1.00 -->
      <g transform="translate(286.225284 257.961397)scale(0.1 -0.1)">
       <use xlink:href="#DejaVuSans-49"/>
       <use x="63.623047" xlink:href="#DejaVuSans-46"/>
       <use x="95.410156" xlink:href="#DejaVuSans-48"/>
       <use x="159.033203" xlink:href="#DejaVuSans-48"/>
      </g>
     </g>
    </g>
    <g id="ytick_19">
     <g id="line2d_42">
      <g>
       <use style="stroke:#000000;stroke-width:0.8;" x="315.490909" xlink:href="#ma8795caa4e" y="229.285945"/>
      </g>
     </g>
     <g id="text_28">
      <!-- 1.25 -->
      <g transform="translate(286.225284 233.085163)scale(0.1 -0.1)">
       <use xlink:href="#DejaVuSans-49"/>
       <use x="63.623047" xlink:href="#DejaVuSans-46"/>
       <use x="95.410156" xlink:href="#DejaVuSans-50"/>
       <use x="159.033203" xlink:href="#DejaVuSans-53"/>
      </g>
     </g>
    </g>
    <g id="text_29">
     <!-- 1e−5 -->
     <g transform="translate(315.490909 217.0608)scale(0.1 -0.1)">
      <use xlink:href="#DejaVuSans-49"/>
      <use x="63.623047" xlink:href="#DejaVuSans-101"/>
      <use x="125.146484" xlink:href="#DejaVuSans-8722"/>
      <use x="208.935547" xlink:href="#DejaVuSans-53"/>
     </g>
    </g>
   </g>
   <g id="line2d_43">
    <path d="M 315.693818 275.338273 
L 317.52 275.193366 
L 319.346182 274.813529 
L 321.172364 274.20468 
L 322.998545 273.374186 
L 325.027636 272.203433 
L 327.056727 270.786286 
L 329.288727 268.967604 
L 331.723636 266.683507 
L 334.361455 263.88813 
L 337.202182 260.533616 
L 340.245818 256.574152 
L 343.492364 251.966776 
L 346.941818 246.673092 
L 350.797091 240.322236 
L 355.058182 232.8517 
L 358.507636 226.560665 
L 358.710545 226.544073 
L 360.942545 228.884621 
L 362.971636 230.663634 
L 365.000727 232.130587 
L 367.029818 233.316027 
L 369.058909 234.251558 
L 371.290909 235.028263 
L 373.522909 235.578142 
L 375.957818 235.961091 
L 378.798545 236.176852 
L 382.045091 236.192866 
L 386.306182 235.970849 
L 399.698182 235.091256 
L 403.350545 235.173248 
L 406.597091 235.472355 
L 409.640727 235.986527 
L 412.481455 236.699987 
L 415.119273 237.58552 
L 417.757091 238.702488 
L 420.394909 240.064499 
L 421.612364 240.828036 
L 422.424 242.879746 
L 426.685091 253.812494 
L 430.134545 262.079048 
L 433.178182 268.838143 
L 436.221818 275.055309 
L 439.062545 280.360675 
L 441.903273 285.194283 
L 444.744 289.577044 
L 447.584727 293.536746 
L 450.425455 297.107856 
L 453.266182 300.328218 
L 456.309818 303.437358 
L 459.556364 306.424697 
L 463.208727 309.464725 
L 467.469818 312.709367 
L 473.354182 316.884422 
L 479.644364 321.08758 
L 484.311273 323.95415 
L 488.572364 326.319602 
L 493.442182 328.756523 
L 504.399273 334.104353 
L 506.834182 335.590244 
L 508.863273 337.084611 
L 510.486545 338.554968 
L 511.906909 340.149171 
L 513.124364 341.845518 
L 514.341818 343.958918 
L 515.559273 346.597272 
L 516.573818 349.199323 
L 516.776727 355.976061 
L 518.4 353.667113 
L 518.4 353.667113 
" style="fill:none;stroke:#ad2e2f;stroke-linecap:square;stroke-width:1.5;"/>
   </g>
   <g id="patch_18">
    <path d="M 315.490909 362.6928 
L 315.490909 220.0608 
" style="fill:none;stroke:#000000;stroke-linecap:square;stroke-linejoin:miter;stroke-width:0.8;"/>
   </g>
   <g id="patch_19">
    <path d="M 518.4 362.6928 
L 518.4 220.0608 
" style="fill:none;stroke:#000000;stroke-linecap:square;stroke-linejoin:miter;stroke-width:0.8;"/>
   </g>
   <g id="patch_20">
    <path d="M 315.490909 362.6928 
L 518.4 362.6928 
" style="fill:none;stroke:#000000;stroke-linecap:square;stroke-linejoin:miter;stroke-width:0.8;"/>
   </g>
   <g id="patch_21">
    <path d="M 315.490909 220.0608 
L 518.4 220.0608 
" style="fill:none;stroke:#000000;stroke-linecap:square;stroke-linejoin:miter;stroke-width:0.8;"/>
   </g>
  </g>
  <g id="legend_1">
   <g id="patch_22">
    <path d="M 193.284375 402.52 
L 382.715625 402.52 
Q 384.715625 402.52 384.715625 400.52 
L 384.715625 328.129375 
Q 384.715625 326.129375 382.715625 326.129375 
L 193.284375 326.129375 
Q 191.284375 326.129375 191.284375 328.129375 
L 191.284375 400.52 
Q 191.284375 402.52 193.284375 402.52 
z
" style="fill:#ffffff;opacity:0.8;stroke:#cccccc;stroke-linejoin:miter;"/>
   </g>
   <g id="line2d_44">
    <path d="M 195.284375 334.227812 
L 215.284375 334.227812 
" style="fill:none;stroke:#ad2e2f;stroke-linecap:square;stroke-width:1.5;"/>
   </g>
   <g id="line2d_45"/>
   <g id="text_30">
    <!-- Discrete elastic rod simulations -->
    <defs>
     <path d="M 19.671875 64.796875 
L 19.671875 8.109375 
L 31.59375 8.109375 
Q 46.6875 8.109375 53.6875 14.9375 
Q 60.6875 21.78125 60.6875 36.53125 
Q 60.6875 51.171875 53.6875 57.984375 
Q 46.6875 64.796875 31.59375 64.796875 
z
M 9.8125 72.90625 
L 30.078125 72.90625 
Q 51.265625 72.90625 61.171875 64.09375 
Q 71.09375 55.28125 71.09375 36.53125 
Q 71.09375 17.671875 61.125 8.828125 
Q 51.171875 0 30.078125 0 
L 9.8125 0 
z
" id="DejaVuSans-68"/>
     <path d="M 9.421875 54.6875 
L 18.40625 54.6875 
L 18.40625 0 
L 9.421875 0 
z
M 9.421875 75.984375 
L 18.40625 75.984375 
L 18.40625 64.59375 
L 9.421875 64.59375 
z
" id="DejaVuSans-105"/>
     <path d="M 44.28125 53.078125 
L 44.28125 44.578125 
Q 40.484375 46.53125 36.375 47.5 
Q 32.28125 48.484375 27.875 48.484375 
Q 21.1875 48.484375 17.84375 46.4375 
Q 14.5 44.390625 14.5 40.28125 
Q 14.5 37.15625 16.890625 35.375 
Q 19.28125 33.59375 26.515625 31.984375 
L 29.59375 31.296875 
Q 39.15625 29.25 43.1875 25.515625 
Q 47.21875 21.78125 47.21875 15.09375 
Q 47.21875 7.46875 41.1875 3.015625 
Q 35.15625 -1.421875 24.609375 -1.421875 
Q 20.21875 -1.421875 15.453125 -0.5625 
Q 10.6875 0.296875 5.421875 2 
L 5.421875 11.28125 
Q 10.40625 8.6875 15.234375 7.390625 
Q 20.0625 6.109375 24.8125 6.109375 
Q 31.15625 6.109375 34.5625 8.28125 
Q 37.984375 10.453125 37.984375 14.40625 
Q 37.984375 18.0625 35.515625 20.015625 
Q 33.0625 21.96875 24.703125 23.78125 
L 21.578125 24.515625 
Q 13.234375 26.265625 9.515625 29.90625 
Q 5.8125 33.546875 5.8125 39.890625 
Q 5.8125 47.609375 11.28125 51.796875 
Q 16.75 56 26.8125 56 
Q 31.78125 56 36.171875 55.265625 
Q 40.578125 54.546875 44.28125 53.078125 
z
" id="DejaVuSans-115"/>
     <path d="M 48.78125 52.59375 
L 48.78125 44.1875 
Q 44.96875 46.296875 41.140625 47.34375 
Q 37.3125 48.390625 33.40625 48.390625 
Q 24.65625 48.390625 19.8125 42.84375 
Q 14.984375 37.3125 14.984375 27.296875 
Q 14.984375 17.28125 19.8125 11.734375 
Q 24.65625 6.203125 33.40625 6.203125 
Q 37.3125 6.203125 41.140625 7.25 
Q 44.96875 8.296875 48.78125 10.40625 
L 48.78125 2.09375 
Q 45.015625 0.34375 40.984375 -0.53125 
Q 36.96875 -1.421875 32.421875 -1.421875 
Q 20.0625 -1.421875 12.78125 6.34375 
Q 5.515625 14.109375 5.515625 27.296875 
Q 5.515625 40.671875 12.859375 48.328125 
Q 20.21875 56 33.015625 56 
Q 37.15625 56 41.109375 55.140625 
Q 45.0625 54.296875 48.78125 52.59375 
z
" id="DejaVuSans-99"/>
     <path d="M 41.109375 46.296875 
Q 39.59375 47.171875 37.8125 47.578125 
Q 36.03125 48 33.890625 48 
Q 26.265625 48 22.1875 43.046875 
Q 18.109375 38.09375 18.109375 28.8125 
L 18.109375 0 
L 9.078125 0 
L 9.078125 54.6875 
L 18.109375 54.6875 
L 18.109375 46.1875 
Q 20.953125 51.171875 25.484375 53.578125 
Q 30.03125 56 36.53125 56 
Q 37.453125 56 38.578125 55.875 
Q 39.703125 55.765625 41.0625 55.515625 
z
" id="DejaVuSans-114"/>
     <path d="M 18.3125 70.21875 
L 18.3125 54.6875 
L 36.8125 54.6875 
L 36.8125 47.703125 
L 18.3125 47.703125 
L 18.3125 18.015625 
Q 18.3125 11.328125 20.140625 9.421875 
Q 21.96875 7.515625 27.59375 7.515625 
L 36.8125 7.515625 
L 36.8125 0 
L 27.59375 0 
Q 17.1875 0 13.234375 3.875 
Q 9.28125 7.765625 9.28125 18.015625 
L 9.28125 47.703125 
L 2.6875 47.703125 
L 2.6875 54.6875 
L 9.28125 54.6875 
L 9.28125 70.21875 
z
" id="DejaVuSans-116"/>
     <path id="DejaVuSans-32"/>
     <path d="M 9.421875 75.984375 
L 18.40625 75.984375 
L 18.40625 0 
L 9.421875 0 
z
" id="DejaVuSans-108"/>
     <path d="M 34.28125 27.484375 
Q 23.390625 27.484375 19.1875 25 
Q 14.984375 22.515625 14.984375 16.5 
Q 14.984375 11.71875 18.140625 8.90625 
Q 21.296875 6.109375 26.703125 6.109375 
Q 34.1875 6.109375 38.703125 11.40625 
Q 43.21875 16.703125 43.21875 25.484375 
L 43.21875 27.484375 
z
M 52.203125 31.203125 
L 52.203125 0 
L 43.21875 0 
L 43.21875 8.296875 
Q 40.140625 3.328125 35.546875 0.953125 
Q 30.953125 -1.421875 24.3125 -1.421875 
Q 15.921875 -1.421875 10.953125 3.296875 
Q 6 8.015625 6 15.921875 
Q 6 25.140625 12.171875 29.828125 
Q 18.359375 34.515625 30.609375 34.515625 
L 43.21875 34.515625 
L 43.21875 35.40625 
Q 43.21875 41.609375 39.140625 45 
Q 35.0625 48.390625 27.6875 48.390625 
Q 23 48.390625 18.546875 47.265625 
Q 14.109375 46.140625 10.015625 43.890625 
L 10.015625 52.203125 
Q 14.9375 54.109375 19.578125 55.046875 
Q 24.21875 56 28.609375 56 
Q 40.484375 56 46.34375 49.84375 
Q 52.203125 43.703125 52.203125 31.203125 
z
" id="DejaVuSans-97"/>
     <path d="M 30.609375 48.390625 
Q 23.390625 48.390625 19.1875 42.75 
Q 14.984375 37.109375 14.984375 27.296875 
Q 14.984375 17.484375 19.15625 11.84375 
Q 23.34375 6.203125 30.609375 6.203125 
Q 37.796875 6.203125 41.984375 11.859375 
Q 46.1875 17.53125 46.1875 27.296875 
Q 46.1875 37.015625 41.984375 42.703125 
Q 37.796875 48.390625 30.609375 48.390625 
z
M 30.609375 56 
Q 42.328125 56 49.015625 48.375 
Q 55.71875 40.765625 55.71875 27.296875 
Q 55.71875 13.875 49.015625 6.21875 
Q 42.328125 -1.421875 30.609375 -1.421875 
Q 18.84375 -1.421875 12.171875 6.21875 
Q 5.515625 13.875 5.515625 27.296875 
Q 5.515625 40.765625 12.171875 48.375 
Q 18.84375 56 30.609375 56 
z
" id="DejaVuSans-111"/>
     <path d="M 45.40625 46.390625 
L 45.40625 75.984375 
L 54.390625 75.984375 
L 54.390625 0 
L 45.40625 0 
L 45.40625 8.203125 
Q 42.578125 3.328125 38.25 0.953125 
Q 33.9375 -1.421875 27.875 -1.421875 
Q 17.96875 -1.421875 11.734375 6.484375 
Q 5.515625 14.40625 5.515625 27.296875 
Q 5.515625 40.1875 11.734375 48.09375 
Q 17.96875 56 27.875 56 
Q 33.9375 56 38.25 53.625 
Q 42.578125 51.265625 45.40625 46.390625 
z
M 14.796875 27.296875 
Q 14.796875 17.390625 18.875 11.75 
Q 22.953125 6.109375 30.078125 6.109375 
Q 37.203125 6.109375 41.296875 11.75 
Q 45.40625 17.390625 45.40625 27.296875 
Q 45.40625 37.203125 41.296875 42.84375 
Q 37.203125 48.484375 30.078125 48.484375 
Q 22.953125 48.484375 18.875 42.84375 
Q 14.796875 37.203125 14.796875 27.296875 
z
" id="DejaVuSans-100"/>
     <path d="M 52 44.1875 
Q 55.375 50.25 60.0625 53.125 
Q 64.75 56 71.09375 56 
Q 79.640625 56 84.28125 50.015625 
Q 88.921875 44.046875 88.921875 33.015625 
L 88.921875 0 
L 79.890625 0 
L 79.890625 32.71875 
Q 79.890625 40.578125 77.09375 44.375 
Q 74.3125 48.1875 68.609375 48.1875 
Q 61.625 48.1875 57.5625 43.546875 
Q 53.515625 38.921875 53.515625 30.90625 
L 53.515625 0 
L 44.484375 0 
L 44.484375 32.71875 
Q 44.484375 40.625 41.703125 44.40625 
Q 38.921875 48.1875 33.109375 48.1875 
Q 26.21875 48.1875 22.15625 43.53125 
Q 18.109375 38.875 18.109375 30.90625 
L 18.109375 0 
L 9.078125 0 
L 9.078125 54.6875 
L 18.109375 54.6875 
L 18.109375 46.1875 
Q 21.1875 51.21875 25.484375 53.609375 
Q 29.78125 56 35.6875 56 
Q 41.65625 56 45.828125 52.96875 
Q 50 49.953125 52 44.1875 
z
" id="DejaVuSans-109"/>
     <path d="M 8.5 21.578125 
L 8.5 54.6875 
L 17.484375 54.6875 
L 17.484375 21.921875 
Q 17.484375 14.15625 20.5 10.265625 
Q 23.53125 6.390625 29.59375 6.390625 
Q 36.859375 6.390625 41.078125 11.03125 
Q 45.3125 15.671875 45.3125 23.6875 
L 45.3125 54.6875 
L 54.296875 54.6875 
L 54.296875 0 
L 45.3125 0 
L 45.3125 8.40625 
Q 42.046875 3.421875 37.71875 1 
Q 33.40625 -1.421875 27.6875 -1.421875 
Q 18.265625 -1.421875 13.375 4.4375 
Q 8.5 10.296875 8.5 21.578125 
z
M 31.109375 56 
z
" id="DejaVuSans-117"/>
     <path d="M 54.890625 33.015625 
L 54.890625 0 
L 45.90625 0 
L 45.90625 32.71875 
Q 45.90625 40.484375 42.875 44.328125 
Q 39.84375 48.1875 33.796875 48.1875 
Q 26.515625 48.1875 22.3125 43.546875 
Q 18.109375 38.921875 18.109375 30.90625 
L 18.109375 0 
L 9.078125 0 
L 9.078125 54.6875 
L 18.109375 54.6875 
L 18.109375 46.1875 
Q 21.34375 51.125 25.703125 53.5625 
Q 30.078125 56 35.796875 56 
Q 45.21875 56 50.046875 50.171875 
Q 54.890625 44.34375 54.890625 33.015625 
z
" id="DejaVuSans-110"/>
    </defs>
    <g transform="translate(223.284375 337.727812)scale(0.1 -0.1)">
     <use xlink:href="#DejaVuSans-68"/>
     <use x="77.001953" xlink:href="#DejaVuSans-105"/>
     <use x="104.785156" xlink:href="#DejaVuSans-115"/>
     <use x="156.884766" xlink:href="#DejaVuSans-99"/>
     <use x="211.865234" xlink:href="#DejaVuSans-114"/>
     <use x="252.947266" xlink:href="#DejaVuSans-101"/>
     <use x="314.470703" xlink:href="#DejaVuSans-116"/>
     <use x="353.679688" xlink:href="#DejaVuSans-101"/>
     <use x="415.203125" xlink:href="#DejaVuSans-32"/>
     <use x="446.990234" xlink:href="#DejaVuSans-101"/>
     <use x="508.513672" xlink:href="#DejaVuSans-108"/>
     <use x="536.296875" xlink:href="#DejaVuSans-97"/>
     <use x="597.576172" xlink:href="#DejaVuSans-115"/>
     <use x="649.675781" xlink:href="#DejaVuSans-116"/>
     <use x="688.884766" xlink:href="#DejaVuSans-105"/>
     <use x="716.667969" xlink:href="#DejaVuSans-99"/>
     <use x="771.648438" xlink:href="#DejaVuSans-32"/>
     <use x="803.435547" xlink:href="#DejaVuSans-114"/>
     <use x="844.517578" xlink:href="#DejaVuSans-111"/>
     <use x="905.699219" xlink:href="#DejaVuSans-100"/>
     <use x="969.175781" xlink:href="#DejaVuSans-32"/>
     <use x="1000.962891" xlink:href="#DejaVuSans-115"/>
     <use x="1053.0625" xlink:href="#DejaVuSans-105"/>
     <use x="1080.845703" xlink:href="#DejaVuSans-109"/>
     <use x="1178.257812" xlink:href="#DejaVuSans-117"/>
     <use x="1241.636719" xlink:href="#DejaVuSans-108"/>
     <use x="1269.419922" xlink:href="#DejaVuSans-97"/>
     <use x="1330.699219" xlink:href="#DejaVuSans-116"/>
     <use x="1369.908203" xlink:href="#DejaVuSans-105"/>
     <use x="1397.691406" xlink:href="#DejaVuSans-111"/>
     <use x="1458.873047" xlink:href="#DejaVuSans-110"/>
     <use x="1522.251953" xlink:href="#DejaVuSans-115"/>
    </g>
   </g>
   <g id="line2d_46">
    <path d="M 195.284375 348.905937 
L 215.284375 348.905937 
" style="fill:none;stroke:#008000;stroke-dasharray:3,4.95;stroke-dashoffset:0;stroke-width:3;"/>
   </g>
   <g id="line2d_47"/>
   <g id="text_31">
    <!-- Snap-through -->
    <defs>
     <path d="M 53.515625 70.515625 
L 53.515625 60.890625 
Q 47.90625 63.578125 42.921875 64.890625 
Q 37.9375 66.21875 33.296875 66.21875 
Q 25.25 66.21875 20.875 63.09375 
Q 16.5 59.96875 16.5 54.203125 
Q 16.5 49.359375 19.40625 46.890625 
Q 22.3125 44.4375 30.421875 42.921875 
L 36.375 41.703125 
Q 47.40625 39.59375 52.65625 34.296875 
Q 57.90625 29 57.90625 20.125 
Q 57.90625 9.515625 50.796875 4.046875 
Q 43.703125 -1.421875 29.984375 -1.421875 
Q 24.8125 -1.421875 18.96875 -0.25 
Q 13.140625 0.921875 6.890625 3.21875 
L 6.890625 13.375 
Q 12.890625 10.015625 18.65625 8.296875 
Q 24.421875 6.59375 29.984375 6.59375 
Q 38.421875 6.59375 43.015625 9.90625 
Q 47.609375 13.234375 47.609375 19.390625 
Q 47.609375 24.75 44.3125 27.78125 
Q 41.015625 30.8125 33.5 32.328125 
L 27.484375 33.5 
Q 16.453125 35.6875 11.515625 40.375 
Q 6.59375 45.0625 6.59375 53.421875 
Q 6.59375 63.09375 13.40625 68.65625 
Q 20.21875 74.21875 32.171875 74.21875 
Q 37.3125 74.21875 42.625 73.28125 
Q 47.953125 72.359375 53.515625 70.515625 
z
" id="DejaVuSans-83"/>
     <path d="M 18.109375 8.203125 
L 18.109375 -20.796875 
L 9.078125 -20.796875 
L 9.078125 54.6875 
L 18.109375 54.6875 
L 18.109375 46.390625 
Q 20.953125 51.265625 25.265625 53.625 
Q 29.59375 56 35.59375 56 
Q 45.5625 56 51.78125 48.09375 
Q 58.015625 40.1875 58.015625 27.296875 
Q 58.015625 14.40625 51.78125 6.484375 
Q 45.5625 -1.421875 35.59375 -1.421875 
Q 29.59375 -1.421875 25.265625 0.953125 
Q 20.953125 3.328125 18.109375 8.203125 
z
M 48.6875 27.296875 
Q 48.6875 37.203125 44.609375 42.84375 
Q 40.53125 48.484375 33.40625 48.484375 
Q 26.265625 48.484375 22.1875 42.84375 
Q 18.109375 37.203125 18.109375 27.296875 
Q 18.109375 17.390625 22.1875 11.75 
Q 26.265625 6.109375 33.40625 6.109375 
Q 40.53125 6.109375 44.609375 11.75 
Q 48.6875 17.390625 48.6875 27.296875 
z
" id="DejaVuSans-112"/>
     <path d="M 4.890625 31.390625 
L 31.203125 31.390625 
L 31.203125 23.390625 
L 4.890625 23.390625 
z
" id="DejaVuSans-45"/>
     <path d="M 54.890625 33.015625 
L 54.890625 0 
L 45.90625 0 
L 45.90625 32.71875 
Q 45.90625 40.484375 42.875 44.328125 
Q 39.84375 48.1875 33.796875 48.1875 
Q 26.515625 48.1875 22.3125 43.546875 
Q 18.109375 38.921875 18.109375 30.90625 
L 18.109375 0 
L 9.078125 0 
L 9.078125 75.984375 
L 18.109375 75.984375 
L 18.109375 46.1875 
Q 21.34375 51.125 25.703125 53.5625 
Q 30.078125 56 35.796875 56 
Q 45.21875 56 50.046875 50.171875 
Q 54.890625 44.34375 54.890625 33.015625 
z
" id="DejaVuSans-104"/>
     <path d="M 45.40625 27.984375 
Q 45.40625 37.75 41.375 43.109375 
Q 37.359375 48.484375 30.078125 48.484375 
Q 22.859375 48.484375 18.828125 43.109375 
Q 14.796875 37.75 14.796875 27.984375 
Q 14.796875 18.265625 18.828125 12.890625 
Q 22.859375 7.515625 30.078125 7.515625 
Q 37.359375 7.515625 41.375 12.890625 
Q 45.40625 18.265625 45.40625 27.984375 
z
M 54.390625 6.78125 
Q 54.390625 -7.171875 48.1875 -13.984375 
Q 42 -20.796875 29.203125 -20.796875 
Q 24.46875 -20.796875 20.265625 -20.09375 
Q 16.0625 -19.390625 12.109375 -17.921875 
L 12.109375 -9.1875 
Q 16.0625 -11.328125 19.921875 -12.34375 
Q 23.78125 -13.375 27.78125 -13.375 
Q 36.625 -13.375 41.015625 -8.765625 
Q 45.40625 -4.15625 45.40625 5.171875 
L 45.40625 9.625 
Q 42.625 4.78125 38.28125 2.390625 
Q 33.9375 0 27.875 0 
Q 17.828125 0 11.671875 7.65625 
Q 5.515625 15.328125 5.515625 27.984375 
Q 5.515625 40.671875 11.671875 48.328125 
Q 17.828125 56 27.875 56 
Q 33.9375 56 38.28125 53.609375 
Q 42.625 51.21875 45.40625 46.390625 
L 45.40625 54.6875 
L 54.390625 54.6875 
z
" id="DejaVuSans-103"/>
    </defs>
    <g transform="translate(223.284375 352.405937)scale(0.1 -0.1)">
     <use xlink:href="#DejaVuSans-83"/>
     <use x="63.476562" xlink:href="#DejaVuSans-110"/>
     <use x="126.855469" xlink:href="#DejaVuSans-97"/>
     <use x="188.134766" xlink:href="#DejaVuSans-112"/>
     <use x="251.611328" xlink:href="#DejaVuSans-45"/>
     <use x="287.695312" xlink:href="#DejaVuSans-116"/>
     <use x="326.904297" xlink:href="#DejaVuSans-104"/>
     <use x="390.283203" xlink:href="#DejaVuSans-114"/>
     <use x="431.365234" xlink:href="#DejaVuSans-111"/>
     <use x="492.546875" xlink:href="#DejaVuSans-117"/>
     <use x="555.925781" xlink:href="#DejaVuSans-103"/>
     <use x="619.402344" xlink:href="#DejaVuSans-104"/>
    </g>
   </g>
   <g id="PathCollection_9">
    <g>
     <use style="fill:#ad2e2f;stroke:#ad2e2f;" x="205.284375" xlink:href="#md0c901c49c" y="364.459062"/>
    </g>
   </g>
   <g id="text_32">
    <!-- Snapshots of configuration -->
    <defs>
     <path d="M 37.109375 75.984375 
L 37.109375 68.5 
L 28.515625 68.5 
Q 23.6875 68.5 21.796875 66.546875 
Q 19.921875 64.59375 19.921875 59.515625 
L 19.921875 54.6875 
L 34.71875 54.6875 
L 34.71875 47.703125 
L 19.921875 47.703125 
L 19.921875 0 
L 10.890625 0 
L 10.890625 47.703125 
L 2.296875 47.703125 
L 2.296875 54.6875 
L 10.890625 54.6875 
L 10.890625 58.5 
Q 10.890625 67.625 15.140625 71.796875 
Q 19.390625 75.984375 28.609375 75.984375 
z
" id="DejaVuSans-102"/>
    </defs>
    <g transform="translate(223.284375 367.084062)scale(0.1 -0.1)">
     <use xlink:href="#DejaVuSans-83"/>
     <use x="63.476562" xlink:href="#DejaVuSans-110"/>
     <use x="126.855469" xlink:href="#DejaVuSans-97"/>
     <use x="188.134766" xlink:href="#DejaVuSans-112"/>
     <use x="251.611328" xlink:href="#DejaVuSans-115"/>
     <use x="303.710938" xlink:href="#DejaVuSans-104"/>
     <use x="367.089844" xlink:href="#DejaVuSans-111"/>
     <use x="428.271484" xlink:href="#DejaVuSans-116"/>
     <use x="467.480469" xlink:href="#DejaVuSans-115"/>
     <use x="519.580078" xlink:href="#DejaVuSans-32"/>
     <use x="551.367188" xlink:href="#DejaVuSans-111"/>
     <use x="612.548828" xlink:href="#DejaVuSans-102"/>
     <use x="647.753906" xlink:href="#DejaVuSans-32"/>
     <use x="679.541016" xlink:href="#DejaVuSans-99"/>
     <use x="734.521484" xlink:href="#DejaVuSans-111"/>
     <use x="795.703125" xlink:href="#DejaVuSans-110"/>
     <use x="859.082031" xlink:href="#DejaVuSans-102"/>
     <use x="894.287109" xlink:href="#DejaVuSans-105"/>
     <use x="922.070312" xlink:href="#DejaVuSans-103"/>
     <use x="985.546875" xlink:href="#DejaVuSans-117"/>
     <use x="1048.925781" xlink:href="#DejaVuSans-114"/>
     <use x="1090.039062" xlink:href="#DejaVuSans-97"/>
     <use x="1151.318359" xlink:href="#DejaVuSans-116"/>
     <use x="1190.527344" xlink:href="#DejaVuSans-105"/>
     <use x="1218.310547" xlink:href="#DejaVuSans-111"/>
     <use x="1279.492188" xlink:href="#DejaVuSans-110"/>
    </g>
   </g>
   <g id="PathCollection_10">
    <path d="M 205.284375 376.137187 
L 202.284375 382.137187 
L 208.284375 382.137187 
z
" style="fill:none;stroke:#b7b072;"/>
   </g>
   <g id="text_33">
    <!-- Sano et al. experiments -->
    <defs>
     <path d="M 54.890625 54.6875 
L 35.109375 28.078125 
L 55.90625 0 
L 45.3125 0 
L 29.390625 21.484375 
L 13.484375 0 
L 2.875 0 
L 24.125 28.609375 
L 4.6875 54.6875 
L 15.28125 54.6875 
L 29.78125 35.203125 
L 44.28125 54.6875 
z
" id="DejaVuSans-120"/>
    </defs>
    <g transform="translate(223.284375 381.762187)scale(0.1 -0.1)">
     <use xlink:href="#DejaVuSans-83"/>
     <use x="63.476562" xlink:href="#DejaVuSans-97"/>
     <use x="124.755859" xlink:href="#DejaVuSans-110"/>
     <use x="188.134766" xlink:href="#DejaVuSans-111"/>
     <use x="249.316406" xlink:href="#DejaVuSans-32"/>
     <use x="281.103516" xlink:href="#DejaVuSans-101"/>
     <use x="342.626953" xlink:href="#DejaVuSans-116"/>
     <use x="381.835938" xlink:href="#DejaVuSans-32"/>
     <use x="413.623047" xlink:href="#DejaVuSans-97"/>
     <use x="474.902344" xlink:href="#DejaVuSans-108"/>
     <use x="502.685547" xlink:href="#DejaVuSans-46"/>
     <use x="534.472656" xlink:href="#DejaVuSans-32"/>
     <use x="566.259766" xlink:href="#DejaVuSans-101"/>
     <use x="627.767578" xlink:href="#DejaVuSans-120"/>
     <use x="686.947266" xlink:href="#DejaVuSans-112"/>
     <use x="750.423828" xlink:href="#DejaVuSans-101"/>
     <use x="811.947266" xlink:href="#DejaVuSans-114"/>
     <use x="853.060547" xlink:href="#DejaVuSans-105"/>
     <use x="880.84375" xlink:href="#DejaVuSans-109"/>
     <use x="978.255859" xlink:href="#DejaVuSans-101"/>
     <use x="1039.779297" xlink:href="#DejaVuSans-110"/>
     <use x="1103.158203" xlink:href="#DejaVuSans-116"/>
     <use x="1142.367188" xlink:href="#DejaVuSans-115"/>
    </g>
   </g>
   <g id="PathCollection_11">
    <path d="M 202.284375 396.815313 
L 208.284375 396.815313 
L 208.284375 390.815313 
L 202.284375 390.815313 
z
" style="fill:none;stroke:#b7b072;"/>
   </g>
   <g id="text_34">
    <!-- Sano et al. simulations -->
    <g transform="translate(223.284375 396.440313)scale(0.1 -0.1)">
     <use xlink:href="#DejaVuSans-83"/>
     <use x="63.476562" xlink:href="#DejaVuSans-97"/>
     <use x="124.755859" xlink:href="#DejaVuSans-110"/>
     <use x="188.134766" xlink:href="#DejaVuSans-111"/>
     <use x="249.316406" xlink:href="#DejaVuSans-32"/>
     <use x="281.103516" xlink:href="#DejaVuSans-101"/>
     <use x="342.626953" xlink:href="#DejaVuSans-116"/>
     <use x="381.835938" xlink:href="#DejaVuSans-32"/>
     <use x="413.623047" xlink:href="#DejaVuSans-97"/>
     <use x="474.902344" xlink:href="#DejaVuSans-108"/>
     <use x="502.685547" xlink:href="#DejaVuSans-46"/>
     <use x="534.472656" xlink:href="#DejaVuSans-32"/>
     <use x="566.259766" xlink:href="#DejaVuSans-115"/>
     <use x="618.359375" xlink:href="#DejaVuSans-105"/>
     <use x="646.142578" xlink:href="#DejaVuSans-109"/>
     <use x="743.554688" xlink:href="#DejaVuSans-117"/>
     <use x="806.933594" xlink:href="#DejaVuSans-108"/>
     <use x="834.716797" xlink:href="#DejaVuSans-97"/>
     <use x="895.996094" xlink:href="#DejaVuSans-116"/>
     <use x="935.205078" xlink:href="#DejaVuSans-105"/>
     <use x="962.988281" xlink:href="#DejaVuSans-111"/>
     <use x="1024.169922" xlink:href="#DejaVuSans-110"/>
     <use x="1087.548828" xlink:href="#DejaVuSans-115"/>
    </g>
   </g>
  </g>
 </g>
 <defs>
  <clipPath id="pfe30878012">
   <rect height="142.632" width="202.909091" x="72" y="48.9024"/>
  </clipPath>
 </defs>
</svg>
